<svg xmlns="http://www.w3.org/2000/svg" viewBox="0 0 920 280" role="img" aria-label="TankFul horizontal logo lockup (white)">
  <!-- White variant for dark backgrounds. Mark strokes + wordmark fill
       are explicit white; the eye-circle has no fill so the dark
       background shows through the iris. -->

  <!-- Mark -->
  <svg x="30" y="20" width="221.5" height="240" viewBox="0 0 388.37 420.73" overflow="visible">
    <g fill="none" stroke="#ffffff" stroke-linecap="round" stroke-linejoin="round">
      <path d="M367.7,231.92s-15.02,131.54-147.22,151.52c-102.71,15.52-184.81-54.5-198.46-144.83C8.38,148.28,66.69,54.6,168.47,39.23c131.37-19.85,185.29,103.72,185.29,103.72" stroke-width="30"/>
      <path d="M104.54,309.97s38.46,45.55,109.73,34.1c71.27-11.46,93.99-66.85,93.99-66.85" stroke-width="19"/>
      <line x1="314.33" y1="195.51" x2="235.69" y2="207.39" stroke-width="40"/>
      <circle cx="143.99" cy="222.79" r="46.81" stroke-width="34" fill="none"/>
    </g>
  </svg>

  <!-- Wordmark -->
  <svg x="291.5" y="83" width="590" height="115" viewBox="2 421 590 115">
    <g fill="#ffffff">
      <path d="M34.79,533.41v-83.09H2.29v-28.65h99.68v28.65h-31.66v83.09h-35.52Z"/>
      <path d="M142.16,531.24c-4.52,3.18-10.55,4.69-17.76,4.69-20.1,0-30.15-8.21-30.15-24.79,0-8.88,2.68-15.41,8.21-19.6,2.85-2.01,6.03-3.69,9.88-4.52,6.03-1.51,13.23-2.35,21.44-3.52,6.53-.67,12.56-2.35,14.41-4.19.84-.84,1.17-1.84,1.17-3.01,0-5.19-3.52-7.87-10.72-7.87-7.87,0-10.55,2.01-11.73,9.38h-29.15c.5-7.2,2.01-12.06,6.2-16.75,6.7-7.2,21.28-12.23,37.53-12.23s29.48,5.03,34.68,14.41c2.18,4.02,3.52,9.05,3.52,14.41v43.89c0,5.86.5,8.04,3.69,11.89h-32l-1.51-8.04c-4.52,3.52-5.53,4.52-7.71,5.86ZM136.8,498.23c-8.54,1.51-11.39,3.85-11.39,9.21,0,4.69,4.02,8.54,8.88,8.54,5.19,0,10.22-2.68,12.73-6.53,1.17-2.18,1.68-4.86,1.68-7.87v-5.53c-5.86,1.17-8.38,1.68-11.89,2.18Z"/>
      <path d="M216.39,452.33v9.72c6.03-8.71,13.57-12.4,25.8-12.4,21.44,0,32.67,11.22,32.67,33.34v50.43h-32v-42.89c0-9.88-3.69-14.91-11.22-14.91s-12.73,6.03-12.73,14.91v42.89h-31.66v-81.08h29.15Z"/>
      <path d="M313.97,421.67v58.13l21.44-27.47h36.86l-29.99,32.83,32.83,48.25h-36.19l-18.26-26.64-6.2,6.37v20.27h-32.17v-111.74h31.66Z"/>
      <path d="M464.12,421.67v26.47h-51.1v18.76h43.56v26.47h-44.06v40.04h-35.18v-111.74h86.78Z"/>
      <path d="M496.34,535.93c-12.73,0-22.78-4.52-27.98-13.07-2.51-4.52-4.36-12.73-4.36-20.1v-50.43h31.66v43.05c0,9.88,4.36,15.08,11.89,15.08,8.21,0,12.23-5.03,12.23-15.08v-43.05h32v81.08h-29.32v-9.55c-9.88,9.88-15.24,12.06-26.13,12.06Z"/>
      <path d="M591.07,421.67v111.74h-31.66v-111.74h31.66Z"/>
    </g>
  </svg>
</svg>
