<svg xmlns="http://www.w3.org/2000/svg" viewBox="0 0 595.09 583.88" role="img" aria-label="TankFul vertical logo lockup">
  <!-- Mark above wordmark above tagline. Geometry preserved verbatim from
       the source Illustrator export so this matches the user-approved
       design exactly. All fills use currentColor so the lockup can be
       recolored from CSS. -->
  <!-- Mark -->
  <g fill="none" stroke="currentColor" stroke-linecap="round" stroke-linejoin="round">
    <path d="M471.12,209.85s-15.02,131.54-147.22,151.52c-102.71,15.52-184.81-54.5-198.46-144.83-13.65-90.33,44.67-184.01,146.45-199.39,131.37-19.85,185.29,103.72,185.29,103.72" stroke-width="30"/>
    <path d="M196.19,273.26s30.74,51.08,102.92,51.08,103.41-51.08,103.41-51.08" stroke-width="19"/>
    <line x1="465.47" y1="163.95" x2="362.71" y2="179.47" stroke-width="33"/>
    <circle cx="269.95" cy="191.65" r="46.81" stroke-width="27" fill="#ffffff"/>
  </g>
  <!-- Tagline (Myriad Pro Regular, 200 tracking) -->
  <g fill="currentColor">
    <path d="M3,559.13c0-2.05-.04-3.74-.16-5.38h3.16l.16,3.2h.12c1.11-1.89,2.96-3.65,6.24-3.65,2.71,0,4.76,1.64,5.62,3.98h.08c.62-1.11,1.4-1.97,2.22-2.59,1.19-.9,2.5-1.4,4.39-1.4,2.63,0,6.53,1.72,6.53,8.62v11.7h-3.53v-11.25c0-3.82-1.4-6.12-4.31-6.12-2.05,0-3.65,1.52-4.27,3.29-.16.49-.29,1.15-.29,1.81v12.28h-3.53v-11.91c0-3.16-1.4-5.46-4.15-5.46-2.26,0-3.9,1.81-4.48,3.61-.21.53-.29,1.15-.29,1.77v11.99h-3.53v-14.5Z"/>
    <path d="M63.44,563.52c0,7.35-5.09,10.55-9.9,10.55-5.38,0-9.53-3.94-9.53-10.22,0-6.65,4.35-10.55,9.85-10.55s9.57,4.15,9.57,10.22ZM47.67,563.72c0,4.35,2.5,7.64,6.04,7.64s6.04-3.24,6.04-7.72c0-3.37-1.68-7.64-5.95-7.64s-6.12,3.94-6.12,7.72Z"/>
    <path d="M76.2,559.95c0-2.34-.04-4.35-.16-6.2h3.16l.12,3.9h.16c.9-2.67,3.08-4.35,5.5-4.35.41,0,.7.04,1.03.12v3.41c-.37-.08-.74-.12-1.23-.12-2.55,0-4.35,1.93-4.85,4.64-.08.49-.16,1.07-.16,1.68v10.59h-3.57v-13.67Z"/>
    <path d="M99.44,564.34c.08,4.89,3.2,6.9,6.82,6.9,2.59,0,4.15-.45,5.5-1.03l.62,2.59c-1.27.58-3.45,1.23-6.61,1.23-6.12,0-9.77-4.02-9.77-10.02s3.53-10.72,9.32-10.72c6.49,0,8.21,5.71,8.21,9.36,0,.74-.08,1.31-.12,1.68h-13.96ZM110.04,561.75c.04-2.3-.94-5.87-5.01-5.87-3.65,0-5.26,3.37-5.54,5.87h10.55Z"/>
    <path d="M143.13,559.13c0-2.05-.04-3.74-.16-5.38h3.16l.16,3.2h.12c1.11-1.89,2.96-3.65,6.24-3.65,2.71,0,4.76,1.64,5.62,3.98h.08c.62-1.11,1.4-1.97,2.22-2.59,1.19-.9,2.5-1.4,4.39-1.4,2.63,0,6.53,1.72,6.53,8.62v11.7h-3.53v-11.25c0-3.82-1.4-6.12-4.31-6.12-2.05,0-3.65,1.52-4.27,3.29-.16.49-.29,1.15-.29,1.81v12.28h-3.53v-11.91c0-3.16-1.4-5.46-4.15-5.46-2.26,0-3.9,1.81-4.48,3.61-.21.53-.29,1.15-.29,1.77v11.99h-3.53v-14.5Z"/>
    <path d="M189.61,548.16c.04,1.23-.86,2.22-2.3,2.22-1.27,0-2.18-.99-2.18-2.22s.94-2.26,2.26-2.26,2.22.99,2.22,2.26ZM185.58,573.62v-19.87h3.61v19.87h-3.61Z"/>
    <path d="M203.4,544.47h3.61v29.15h-3.61v-29.15Z"/>
    <path d="M223.32,564.34c.08,4.89,3.2,6.9,6.82,6.9,2.59,0,4.15-.45,5.5-1.03l.62,2.59c-1.27.58-3.45,1.23-6.61,1.23-6.12,0-9.77-4.02-9.77-10.02s3.53-10.72,9.32-10.72c6.49,0,8.21,5.71,8.21,9.36,0,.74-.08,1.31-.12,1.68h-13.96ZM233.91,561.75c.04-2.3-.94-5.87-5.01-5.87-3.65,0-5.26,3.37-5.54,5.87h10.55Z"/>
    <path d="M249.59,569.92c1.07.7,2.96,1.44,4.76,1.44,2.63,0,3.86-1.31,3.86-2.96,0-1.72-1.03-2.67-3.7-3.65-3.57-1.27-5.26-3.24-5.26-5.63,0-3.2,2.59-5.83,6.86-5.83,2.01,0,3.78.57,4.89,1.23l-.9,2.63c-.78-.49-2.22-1.15-4.07-1.15-2.13,0-3.33,1.23-3.33,2.71,0,1.64,1.19,2.38,3.78,3.37,3.45,1.31,5.21,3.04,5.21,6,0,3.49-2.71,5.95-7.43,5.95-2.18,0-4.19-.53-5.58-1.35l.9-2.75Z"/>
    <path d="M299.85,561.18v2.67h-10.14v-2.67h10.14Z"/>
    <path d="M329.2,544.47h3.61v29.15h-3.61v-29.15Z"/>
    <path d="M349.12,564.34c.08,4.89,3.2,6.9,6.82,6.9,2.59,0,4.15-.45,5.5-1.03l.62,2.59c-1.27.58-3.45,1.23-6.61,1.23-6.12,0-9.77-4.02-9.77-10.02s3.53-10.72,9.32-10.72c6.49,0,8.21,5.71,8.21,9.36,0,.74-.08,1.31-.12,1.68h-13.96ZM359.71,561.75c.04-2.3-.94-5.87-5.01-5.87-3.65,0-5.26,3.37-5.54,5.87h10.55Z"/>
    <path d="M375.4,569.92c1.07.7,2.96,1.44,4.76,1.44,2.63,0,3.86-1.31,3.86-2.96,0-1.72-1.03-2.67-3.7-3.65-3.57-1.27-5.26-3.24-5.26-5.63,0-3.2,2.59-5.83,6.86-5.83,2.01,0,3.78.57,4.89,1.23l-.9,2.63c-.78-.49-2.22-1.15-4.07-1.15-2.13,0-3.33,1.23-3.33,2.71,0,1.64,1.19,2.38,3.78,3.37,3.45,1.31,5.21,3.04,5.21,6,0,3.49-2.71,5.95-7.43,5.95-2.18,0-4.19-.53-5.58-1.35l.9-2.75Z"/>
    <path d="M399.87,569.92c1.07.7,2.96,1.44,4.76,1.44,2.63,0,3.86-1.31,3.86-2.96,0-1.72-1.03-2.67-3.7-3.65-3.57-1.27-5.26-3.24-5.26-5.63,0-3.2,2.59-5.83,6.86-5.83,2.01,0,3.78.57,4.89,1.23l-.9,2.63c-.78-.49-2.22-1.15-4.07-1.15-2.13,0-3.33,1.23-3.33,2.71,0,1.64,1.19,2.38,3.78,3.37,3.45,1.31,5.21,3.04,5.21,6,0,3.49-2.71,5.95-7.43,5.95-2.18,0-4.19-.53-5.58-1.35l.9-2.75Z"/>
    <path d="M441.74,559.13c0-2.05-.04-3.74-.16-5.38h3.16l.16,3.2h.12c1.11-1.89,2.96-3.65,6.24-3.65,2.71,0,4.76,1.64,5.63,3.98h.08c.62-1.11,1.4-1.97,2.22-2.59,1.19-.9,2.5-1.4,4.39-1.4,2.63,0,6.53,1.72,6.53,8.62v11.7h-3.53v-11.25c0-3.82-1.4-6.12-4.31-6.12-2.05,0-3.65,1.52-4.27,3.29-.16.49-.29,1.15-.29,1.81v12.28h-3.53v-11.91c0-3.16-1.4-5.46-4.15-5.46-2.26,0-3.9,1.81-4.48,3.61-.21.53-.29,1.15-.29,1.77v11.99h-3.53v-14.5Z"/>
    <path d="M502.18,563.52c0,7.35-5.09,10.55-9.9,10.55-5.38,0-9.53-3.94-9.53-10.22,0-6.65,4.35-10.55,9.85-10.55s9.57,4.15,9.57,10.22ZM486.42,563.72c0,4.35,2.5,7.64,6.04,7.64s6.04-3.24,6.04-7.72c0-3.37-1.68-7.64-5.95-7.64s-6.12,3.94-6.12,7.72Z"/>
    <path d="M514.95,559.13c0-2.05-.04-3.74-.16-5.38h3.2l.21,3.29h.08c.99-1.89,3.29-3.74,6.57-3.74,2.75,0,7.02,1.64,7.02,8.46v11.87h-3.61v-11.46c0-3.2-1.19-5.87-4.6-5.87-2.38,0-4.23,1.68-4.84,3.7-.16.45-.25,1.07-.25,1.68v11.95h-3.61v-14.5Z"/>
    <path d="M547.96,564.34c.08,4.89,3.2,6.9,6.82,6.9,2.59,0,4.15-.45,5.5-1.03l.62,2.59c-1.27.58-3.45,1.23-6.61,1.23-6.12,0-9.77-4.02-9.77-10.02s3.53-10.72,9.32-10.72c6.49,0,8.21,5.71,8.21,9.36,0,.74-.08,1.31-.12,1.68h-13.96ZM558.56,561.75c.04-2.3-.94-5.87-5.01-5.87-3.65,0-5.26,3.37-5.54,5.87h10.55Z"/>
    <path d="M576.05,553.75l4.35,11.74c.45,1.31.94,2.87,1.27,4.06h.08c.37-1.19.78-2.71,1.27-4.15l3.94-11.66h3.82l-5.42,14.17c-2.59,6.82-4.35,10.31-6.82,12.44-1.77,1.56-3.53,2.18-4.43,2.34l-.9-3.04c.9-.29,2.09-.66,3.16-1.77.99-.78,2.22-2.18,3.04-4.02.16-.37.29-.66.29-.86s-.08-.49-.25-.94l-7.35-18.31h3.94Z"/>
  </g>
  <!-- Wordmark (Europa Grotesk SH Bold) -->
  <g fill="currentColor">
    <path d="M34.79,533.41v-83.09H2.29v-28.65h99.68v28.65h-31.66v83.09h-35.52Z"/>
    <path d="M142.16,531.24c-4.52,3.18-10.55,4.69-17.76,4.69-20.1,0-30.15-8.21-30.15-24.79,0-8.88,2.68-15.41,8.21-19.6,2.85-2.01,6.03-3.69,9.88-4.52,6.03-1.51,13.23-2.35,21.44-3.52,6.53-.67,12.56-2.35,14.41-4.19.84-.84,1.17-1.84,1.17-3.01,0-5.19-3.52-7.87-10.72-7.87-7.87,0-10.55,2.01-11.73,9.38h-29.15c.5-7.2,2.01-12.06,6.2-16.75,6.7-7.2,21.28-12.23,37.53-12.23s29.48,5.03,34.68,14.41c2.18,4.02,3.52,9.05,3.52,14.41v43.89c0,5.86.5,8.04,3.69,11.89h-32l-1.51-8.04c-4.52,3.52-5.53,4.52-7.71,5.86ZM136.8,498.23c-8.54,1.51-11.39,3.85-11.39,9.21,0,4.69,4.02,8.54,8.88,8.54,5.19,0,10.22-2.68,12.73-6.53,1.17-2.18,1.68-4.86,1.68-7.87v-5.53c-5.86,1.17-8.38,1.68-11.89,2.18Z"/>
    <path d="M216.39,452.33v9.72c6.03-8.71,13.57-12.4,25.8-12.4,21.44,0,32.67,11.22,32.67,33.34v50.43h-32v-42.89c0-9.88-3.69-14.91-11.22-14.91s-12.73,6.03-12.73,14.91v42.89h-31.66v-81.08h29.15Z"/>
    <path d="M313.97,421.67v58.13l21.44-27.47h36.86l-29.99,32.83,32.83,48.25h-36.19l-18.26-26.64-6.2,6.37v20.27h-32.17v-111.74h31.66Z"/>
    <path d="M464.12,421.67v26.47h-51.1v18.76h43.56v26.47h-44.06v40.04h-35.18v-111.74h86.78Z"/>
    <path d="M496.34,535.93c-12.73,0-22.78-4.52-27.98-13.07-2.51-4.52-4.36-12.73-4.36-20.1v-50.43h31.66v43.05c0,9.88,4.36,15.08,11.89,15.08,8.21,0,12.23-5.03,12.23-15.08v-43.05h32v81.08h-29.32v-9.55c-9.88,9.88-15.24,12.06-26.13,12.06Z"/>
    <path d="M591.07,421.67v111.74h-31.66v-111.74h31.66Z"/>
  </g>
</svg>
