<?xml version="1.0" encoding="UTF-8"?>
<svg id="canco" xmlns="http://www.w3.org/2000/svg" version="1.1" viewBox="0 0 288 288">
  <!-- Generator: Adobe Illustrator 30.4.0, SVG Export Plug-In . SVG Version: 2.1.4 Build 226)  -->
  <defs>
    <style>
      .st0 {
        fill: #faf9f8;
      }

      .st1 {
        fill: #263570;
      }

      .st2 {
        fill: #f05323;
      }
    </style>
  </defs>
  <path class="st2" d="M164.7,148.11l-4.24-6c-3.24-4.59-9.58-6.55-14.74-3.28l-28.67,18.16c-3.27,2.07-4.66,5.67-3.21,9.31l-43.89,37.14c-.71.6-1.16,1.44-1.04,2.01.13.64.66,1.29,1.67,2.11l-8.66,7.35-51.35-41.75,14.96-7.2c1.93-.93,2.89-2.95,2.29-5.17l-11.66-43.04,37.79,7.91c2.79.31,5.15-1.14,6.12-3.73l4.91-16.76,31.55,34.59c1.55,1.7,4.72,1.86,6.33.82,1.36-.88,2.71-3.48,2.26-5.9l-13.11-70.54,20.27,10.09c3.39,1.23,6.67.25,8.59-2.85l23.59-43.97,23.55,43.71c1.43,2.88,4.75,4.68,7.77,3.25l21.08-10-13.04,70.92c-.42,2.3,1.34,4.8,2.88,5.62,1.45.78,4.4.43,5.93-1.25l31.42-34.49,4.81,16.44c1.03,3.24,4.09,4.85,7.36,3.72l36.48-7.26-11.26,42.05c-.42,1.58-.56,4.37.93,5.1l16.04,7.84-8.18,6.73-35.72-16.67c-7.41-3.46-14.73-4.94-22.99-5.23l-14.96-.51c-.41-6.15-7.01-9.23-13.05-9.24h-18.77Z"/>
  <g>
    <path class="st0" d="M162.77,252.2c-12.77-1.82-24.26-1.74-36.63,0l-51.98,7.36c-2.85.4-5.23-.19-6.97-2.01s-2.42-4.57-1.63-7.24l5.62-18.83L6.12,178.55c-2.1-1.71-2.66-3.96-2.49-6.3s1.65-4.51,4.11-5.66l12.75-5.97-11.12-41.44c-.64-2.38.42-4.77,1.74-6.21,1.5-1.63,3.93-2.51,6.55-1.97l36.07,7.5,4.49-15.49c.68-2.36,2.75-4.06,4.6-4.56,2.56-.69,5.32-.25,7.17,1.77l27.03,29.54-11.79-63.81c-.54-2.94.04-5.41,2.13-7.13,1.81-1.49,4.89-2.41,7.5-1.12l20.02,9.91,23.66-43.96c1.18-2.18,3.71-3.13,5.73-3.14,2.37-.02,4.94.95,6.23,3.34l23.55,43.74,20.49-9.8c2.3-1.1,5-.18,6.66,1.04,2.11,1.55,3.09,4.13,2.56,7l-11.77,63.79,26.48-28.78c1.86-2.02,4.15-3.02,6.81-2.55,2.41.43,4.75,2.14,5.56,4.94l4.45,15.33,36.38-7.43c2.53-.52,4.76.67,6.17,2.14,1.75,1.82,2.28,4.29,1.56,6.98l-10.92,40.4,12.45,5.86c2.34,1.1,3.97,3.01,4.27,5.02.38,2.63.03,5.13-2.17,6.92l-65.2,53.07,5.72,18.95c.81,2.67.07,5.23-1.6,7.07s-4.1,2.53-6.96,2.13l-52.2-7.44ZM164.7,148.11h18.77c6.04.02,12.65,3.09,13.05,9.25l14.96.51c8.26.28,15.58,1.77,22.99,5.23l35.72,16.67,8.18-6.73-16.04-7.84c-1.49-.73-1.35-3.52-.93-5.1l11.26-42.05-36.48,7.26c-3.27,1.13-6.32-.48-7.36-3.72l-4.81-16.44-31.42,34.49c-1.53,1.68-4.48,2.03-5.93,1.25-1.53-.82-3.3-3.33-2.88-5.62l13.04-70.92-21.08,10c-3.02,1.43-6.34-.37-7.77-3.25l-23.55-43.71-23.59,43.97c-1.92,3.1-5.2,4.08-8.59,2.85l-20.27-10.09,13.11,70.54c.45,2.42-.9,5.02-2.26,5.9-1.62,1.04-4.78.88-6.33-.82l-31.55-34.59-4.91,16.76c-.97,2.58-3.33,4.04-6.12,3.73l-37.79-7.91,11.66,43.04c.6,2.22-.36,4.24-2.29,5.17l-14.96,7.2,51.35,41.75,8.66-7.35c-1.01-.81-1.54-1.47-1.67-2.11-.12-.57.34-1.41,1.04-2.01l43.89-37.14c-1.46-3.63-.06-7.24,3.21-9.31l28.67-18.16c5.16-3.27,11.5-1.3,14.74,3.28l4.24,6ZM77.46,235.2l-5.24,17.39,50.56-7.12c14.44-2.03,27.94-2.2,42.4-.15l51.52,7.3-5.42-18.55c-.88-3-.08-6.24,2.52-8.35l48.44-39.45-36.25-16.66c-4.53-2.08-9.44-2.16-14.27-2.38l-16.16-.66c-.95,4.95-4.27,8.33-9.29,8.38l-11.34.12-4.99,26.74c-.38,2.03-1.6,4.32-3.45,5.44l-48.84,29.56c-3.67,2.22-7.86,2.42-11.26-.34l-26.11-21.14-8.78,7.25,3.89,3.27c2.75,2.32,3.19,5.7,2.09,9.34ZM126.41,194.95l16.11,4.78c-.76-2.04-2.08-3.3-3.44-4.76l-9.57-10.25c-.76-.82-2.41-.82-3.34-.03l-30.3,25.59c-1.05.92-1.37,2.7-.26,3.61l10.63,8.7,11.21-24.14c1.45-3.11,5.45-4.52,8.97-3.48ZM139.69,212.21c2.67-1.61,4.07-4.08,4.25-7.23l-16.35-4.79c-3.13-.92-6.3.69-7.59,3.58l-9.71,21.74c3.61,1.34,6.73.39,9.65-1.37l19.75-11.93Z"/>
    <path class="st1" d="M77.46,235.2c1.1-3.64.66-7.02-2.09-9.34l-3.89-3.27,8.78-7.25,26.11,21.14c3.4,2.76,7.59,2.56,11.26.34l48.84-29.56c1.85-1.12,3.07-3.41,3.45-5.44l4.99-26.74,11.34-.12c5.02-.05,8.34-3.43,9.29-8.38l16.16.66c4.83.22,9.74.3,14.27,2.38l36.25,16.66-48.44,39.45c-2.59,2.11-3.4,5.36-2.52,8.35l5.42,18.55-51.52-7.3c-14.46-2.05-27.96-1.89-42.4.15l-50.56,7.12,5.24-17.39Z"/>
    <g>
      <path class="st1" d="M126.41,194.95c-3.51-1.04-7.52.37-8.97,3.48l-11.21,24.14-10.63-8.7c-1.11-.91-.79-2.68.26-3.61l30.3-25.59c.93-.79,2.58-.78,3.34.03l9.57,10.25c1.36,1.46,2.68,2.71,3.44,4.76l-16.11-4.78Z"/>
      <path class="st1" d="M139.69,212.21l-19.75,11.93c-2.92,1.76-6.04,2.71-9.65,1.37l9.71-21.74c1.29-2.89,4.46-4.5,7.59-3.58l16.35,4.79c-.18,3.16-1.57,5.62-4.25,7.23Z"/>
    </g>
  </g>
</svg>