<?xml version="1.0" encoding="UTF-8"?>
<svg xmlns="http://www.w3.org/2000/svg" version="1.1" viewBox="0 0 288 288">
  <!-- Generator: Adobe Illustrator 30.4.0, SVG Export Plug-In . SVG Version: 2.1.4 Build 226)  -->
  <defs>
    <style>
      .st0 {
        fill: #fefefe;
      }

      .st1, .st2 {
        fill: #231f20;
      }

      .st3 {
        fill: #faf9f8;
      }

      .st4 {
        fill: #d04145;
      }

      .st5 {
        fill: #263570;
      }

      .st2, .st6 {
        fill-rule: evenodd;
      }

      .st7 {
        display: none;
      }

      .st8 {
        fill: #f05323;
      }

      .st6 {
        fill: #ed2129;
      }

      .st9 {
        fill: #1e5b99;
      }
    </style>
  </defs>
  <g id="canco" class="st7">
    <g>
      <path class="st8" d="M164.7,148.11l-4.24-6c-3.24-4.59-9.58-6.55-14.74-3.28l-28.67,18.16c-3.27,2.07-4.66,5.67-3.21,9.31l-43.89,37.14c-.71.6-1.16,1.44-1.04,2.01.13.64.66,1.29,1.67,2.11l-8.66,7.35-51.35-41.75,14.96-7.2c1.93-.93,2.89-2.95,2.29-5.17l-11.66-43.04,37.79,7.91c2.79.31,5.15-1.14,6.12-3.73l4.91-16.76,31.55,34.59c1.55,1.7,4.72,1.86,6.33.82,1.36-.88,2.71-3.48,2.26-5.9l-13.11-70.54,20.27,10.09c3.39,1.23,6.67.25,8.59-2.85l23.59-43.97,23.55,43.71c1.43,2.88,4.75,4.68,7.77,3.25l21.08-10-13.04,70.92c-.42,2.3,1.34,4.8,2.88,5.62,1.45.78,4.4.43,5.93-1.25l31.42-34.49,4.81,16.44c1.03,3.24,4.09,4.85,7.36,3.72l36.48-7.26-11.26,42.05c-.42,1.58-.56,4.37.93,5.1l16.04,7.84-8.18,6.73-35.72-16.67c-7.41-3.46-14.73-4.94-22.99-5.23l-14.96-.51c-.41-6.15-7.01-9.23-13.05-9.24h-18.77Z"/>
      <g>
        <path class="st3" d="M162.77,252.2c-12.77-1.82-24.26-1.74-36.63,0l-51.98,7.36c-2.85.4-5.23-.19-6.97-2.01s-2.42-4.57-1.63-7.24l5.62-18.83L6.12,178.55c-2.1-1.71-2.66-3.96-2.49-6.3s1.65-4.51,4.11-5.66l12.75-5.97-11.12-41.44c-.64-2.38.42-4.77,1.74-6.21,1.5-1.63,3.93-2.51,6.55-1.97l36.07,7.5,4.49-15.49c.68-2.36,2.75-4.06,4.6-4.56,2.56-.69,5.32-.25,7.17,1.77l27.03,29.54-11.79-63.81c-.54-2.94.04-5.41,2.13-7.13,1.81-1.49,4.89-2.41,7.5-1.12l20.02,9.91,23.66-43.96c1.18-2.18,3.71-3.13,5.73-3.14,2.37-.02,4.94.95,6.23,3.34l23.55,43.74,20.49-9.8c2.3-1.1,5-.18,6.66,1.04,2.11,1.55,3.09,4.13,2.56,7l-11.77,63.79,26.48-28.78c1.86-2.02,4.15-3.02,6.81-2.55,2.41.43,4.75,2.14,5.56,4.94l4.45,15.33,36.38-7.43c2.53-.52,4.76.67,6.17,2.14,1.75,1.82,2.28,4.29,1.56,6.98l-10.92,40.4,12.45,5.86c2.34,1.1,3.97,3.01,4.27,5.02.38,2.63.03,5.13-2.17,6.92l-65.2,53.07,5.72,18.95c.81,2.67.07,5.23-1.6,7.07s-4.1,2.53-6.96,2.13l-52.2-7.44ZM164.7,148.11h18.77c6.04.02,12.65,3.09,13.05,9.25l14.96.51c8.26.28,15.58,1.77,22.99,5.23l35.72,16.67,8.18-6.73-16.04-7.84c-1.49-.73-1.35-3.52-.93-5.1l11.26-42.05-36.48,7.26c-3.27,1.13-6.32-.48-7.36-3.72l-4.81-16.44-31.42,34.49c-1.53,1.68-4.48,2.03-5.93,1.25-1.53-.82-3.3-3.33-2.88-5.62l13.04-70.92-21.08,10c-3.02,1.43-6.34-.37-7.77-3.25l-23.55-43.71-23.59,43.97c-1.92,3.1-5.2,4.08-8.59,2.85l-20.27-10.09,13.11,70.54c.45,2.42-.9,5.02-2.26,5.9-1.62,1.04-4.78.88-6.33-.82l-31.55-34.59-4.91,16.76c-.97,2.58-3.33,4.04-6.12,3.73l-37.79-7.91,11.66,43.04c.6,2.22-.36,4.24-2.29,5.17l-14.96,7.2,51.35,41.75,8.66-7.35c-1.01-.81-1.54-1.47-1.67-2.11-.12-.57.34-1.41,1.04-2.01l43.89-37.14c-1.46-3.63-.06-7.24,3.21-9.31l28.67-18.16c5.16-3.27,11.5-1.3,14.74,3.28l4.24,6ZM77.46,235.2l-5.24,17.39,50.56-7.12c14.44-2.03,27.94-2.2,42.4-.15l51.52,7.3-5.42-18.55c-.88-3-.08-6.24,2.52-8.35l48.44-39.45-36.25-16.66c-4.53-2.08-9.44-2.16-14.27-2.38l-16.16-.66c-.95,4.95-4.27,8.33-9.29,8.38l-11.34.12-4.99,26.74c-.38,2.03-1.6,4.32-3.45,5.44l-48.84,29.56c-3.67,2.22-7.86,2.42-11.26-.34l-26.11-21.14-8.78,7.25,3.89,3.27c2.75,2.32,3.19,5.7,2.09,9.34ZM126.41,194.95l16.11,4.78c-.76-2.04-2.08-3.3-3.44-4.76l-9.57-10.25c-.76-.82-2.41-.82-3.34-.03l-30.3,25.59c-1.05.92-1.37,2.7-.26,3.61l10.63,8.7,11.21-24.14c1.45-3.11,5.45-4.52,8.97-3.48ZM139.69,212.21c2.67-1.61,4.07-4.08,4.25-7.23l-16.35-4.79c-3.13-.92-6.3.69-7.59,3.58l-9.71,21.74c3.61,1.34,6.73.39,9.65-1.37l19.75-11.93Z"/>
        <path class="st5" d="M77.46,235.2c1.1-3.64.66-7.02-2.09-9.34l-3.89-3.27,8.78-7.25,26.11,21.14c3.4,2.76,7.59,2.56,11.26.34l48.84-29.56c1.85-1.12,3.07-3.41,3.45-5.44l4.99-26.74,11.34-.12c5.02-.05,8.34-3.43,9.29-8.38l16.16.66c4.83.22,9.74.3,14.27,2.38l36.25,16.66-48.44,39.45c-2.59,2.11-3.4,5.36-2.52,8.35l5.42,18.55-51.52-7.3c-14.46-2.05-27.96-1.89-42.4.15l-50.56,7.12,5.24-17.39Z"/>
        <g>
          <path class="st5" d="M126.41,194.95c-3.51-1.04-7.52.37-8.97,3.48l-11.21,24.14-10.63-8.7c-1.11-.91-.79-2.68.26-3.61l30.3-25.59c.93-.79,2.58-.78,3.34.03l9.57,10.25c1.36,1.46,2.68,2.71,3.44,4.76l-16.11-4.78Z"/>
          <path class="st5" d="M139.69,212.21l-19.75,11.93c-2.92,1.76-6.04,2.71-9.65,1.37l9.71-21.74c1.29-2.89,4.46-4.5,7.59-3.58l16.35,4.79c-.18,3.16-1.57,5.62-4.25,7.23Z"/>
        </g>
      </g>
    </g>
  </g>
  <g id="Petro" class="st7">
    <g>
      <g>
        <path class="st2" d="M278.08,209.28h-12.01l-8.73,36.45h10.15l.87-4.69h6.55l.76,4.69h10.15l-7.75-36.45ZM271.96,233.18v.11h-2.4l1.42-8.51c.33-2.18.65-4.58.87-6.77h.11c.22,2.18.44,4.58.76,6.77l1.09,8.51-1.86-.11Z"/>
        <path class="st2" d="M11.33,209.28H2.38v36.45h9.82v-12.01c8.51.33,14.3-2.62,14.3-12.12s-6.55-12.33-15.17-12.33ZM12.2,225.54v-8.4h.76c2.4,0,3.6,2.07,3.6,4.37,0,2.73-1.64,4.15-4.37,4.04Z"/>
        <polygon class="st2" points="29.01 245.73 47.23 245.73 47.23 237.11 38.83 237.11 38.83 231.55 46.36 231.55 46.36 222.92 38.83 222.92 38.83 217.9 53.02 217.9 53.02 245.73 62.84 245.73 62.84 217.9 68.52 217.9 68.52 209.28 29.01 209.28 29.01 245.73"/>
        <path class="st2" d="M95.15,221.4c0-9.6-6.22-12.11-14.73-12.11h-9.5v36.45h9.82v-14.87l-.11-.3v.1s0-.11,0-.11h0s.11-4.47.11-4.47v-8.95c2.73-.22,4.58,1.2,4.58,4.37,0,2.4-1.42,4.58-3.93,4.58h-.65v4.78l5.35,14.87h10.7l-7.31-15.17c3.93-1.53,5.68-5.13,5.68-9.17Z"/>
        <path class="st2" d="M110.21,208.63c-10.04,0-13.97,9.93-13.97,18.88s3.93,18.77,13.97,18.77,13.86-9.93,13.86-18.77-3.93-18.88-13.86-18.88ZM110.21,237.11c-3.71,0-3.93-7.31-3.93-9.6s.22-9.71,3.93-9.71,3.82,7.42,3.82,9.71-.11,9.6-3.82,9.6Z"/>
        <rect class="st1" x="125.6" y="222.71" width="3.49" height="8.73"/>
        <polygon class="st2" points="192.94 228.27 186.07 209.28 176.68 209.28 176.68 245.73 186.18 245.73 186.18 226.31 192.94 245.73 202.44 245.73 202.44 209.28 192.94 209.28 192.94 228.27"/>
        <path class="st2" d="M212.59,209.28l-8.73,36.45h10.15l.76-4.69h6.66l.65,4.69h10.26l-7.75-36.45h-12.01ZM218.37,233.18v.11h-2.29l1.42-8.51c.33-2.18.55-4.58.87-6.77h.11c.22,2.18.44,4.58.65,6.77l1.09,8.51-1.86-.11Z"/>
        <path class="st2" d="M242.17,209.28h-7.97v36.45h8.62c6,0,16.59-1.64,16.59-18.45,0-10.91-6.11-18.01-17.24-18.01ZM244.13,236.89v-18.55c4.47,0,5.24,5.57,5.24,9.5,0,3.38-.76,9.06-5.24,9.06Z"/>
        <path class="st2" d="M156.38,209.28l-6.44,26.74c-.87.44-1.75.55-2.95.55-4.91,0-6.22-4.8-6.22-9.06,0-3.93.98-9.06,6-9.71,1.2-.22,3.38-.55,4.91.11v-8.73c-.98-.22-3.27-.44-5.02-.44-4.8,0-15.94,2.73-15.94,19.1,0,12.44,6.99,17.9,14.95,17.9h12.12l.76-4.69h6.66l.65,4.69h10.26l-7.75-36.45h-12.01ZM161.84,233.18l-1.96.11,1.42-8.51c.33-2.18.55-4.58.87-6.77h.11c.22,2.18.44,4.58.65,6.77l1.09,8.51-2.18-.11Z"/>
      </g>
      <path class="st6" d="M285.61,198.15l-22.37-7.31c-5.78-2.07-6-5.78-3.93-13.64l9.17-31.43c1.09-3.38-1.31-4.26-4.47-3.17l-31.65,5.46c-3.71.55-6.11-1.75-6.55-3.93l-3.71-14.63c-.76-2.62-3.17-2.95-5.02-.33l-23.79,29.69c-4.26,5.24-12.66,5.24-10.04-6.88l13.42-63.96c.22-2.4-1.64-3.17-3.38-2.07l-14.19,8.4c-4.8,2.62-9.5,3.06-12.11-1.64l-19.97-40.38c-2.07-3.71-4.15-3.71-6.22,0l-19.97,40.38c-2.62,4.69-7.31,4.26-12.01,1.64l-14.19-8.4c-1.86-1.09-3.71-.33-3.49,2.07l13.42,63.96c2.62,12.12-5.78,12.12-9.93,6.88l-23.9-29.69c-1.86-2.62-4.15-2.29-5.02.33l-3.6,14.63c-.55,2.18-2.95,4.47-6.55,3.93l-31.76-5.46c-3.17-1.09-5.57-.22-4.47,3.17l9.17,31.43c2.07,7.86,1.86,11.57-3.93,13.64l-22.27,7.31V33.99h283.34v164.15h0Z"/>
    </g>
  </g>
  <g id="Husky">
    <g>
      <path class="st9" d="M3.65,4.53h280.7v278.94H3.65V4.53ZM213.3,263.26l9.62-1.15,9.88-2.88,8.83-4.72,7.22-6.1,6.6-7.76,4.61-8.7,2.89-9.24.58-5.27V75.63s-.59-10.47-.59-10.47l-2.92-9.24-4.62-8.66-6.42-7.42-7.42-6.42-8.69-4.61-9.8-2.9-5.53-.59H75.21s-10.77.57-10.77.57l-9.25,2.88-8.85,4.72-7.61,6.5-6.22,7.35-4.62,8.68-2.9,9.31-1.14,10.3v137.41s1.16,9.74,1.16,9.74l2.85,9.07,4.57,8.72,6.54,7.57,7.44,6.42,8.68,4.61,9.29,2.91,10.54,1.17h138.37Z"/>
      <g>
        <path class="st0" d="M213.3,263.26H74.93s-10.54-1.17-10.54-1.17l-9.29-2.91-8.68-4.61-7.44-6.42-6.54-7.57-4.57-8.72-2.85-9.07-1.16-9.74V75.63s1.14-10.3,1.14-10.3l2.9-9.31,4.62-8.68,6.22-7.35,7.61-6.5,8.85-4.72,9.25-2.88,10.77-.57h142.32s5.53.6,5.53.6l9.8,2.9,8.69,4.61,7.42,6.42,6.42,7.42,4.62,8.66,2.92,9.24.59,10.47v141.81s-.58,5.27-.58,5.27l-2.89,9.24-4.61,8.7-6.6,7.76-7.22,6.1-8.83,4.72-9.88,2.88-9.62,1.15ZM73.7,148.48l5.71-4.2,27.77-16.49.22-5.92,2.71-7.24c.76-2.02,2.17-3.66,4.04-4.76-.71,2.61-1.52,5.03-1.6,7.77l.74,7.24c.96,5.83,3.37,10.85,6.95,15.47,3.45,4.44,8.9,11.77,13.51,13.85,1.63.73,3.52.72,5.25.8l2.79-2.86c1.06-1.08.57-4.38.03-5.21-.51-.78-1.41-2-2.29-2.29l-7.35-2.4-3.52-5.79,4.72-3.53,7.58-2.66c1.23-.43,3,.59,3.34,1.76l1.26,4.39c.95,3.31,6.16,3.41,7.61,2.72l7.46-3.56c2.98-1.42,9.76-2.64,11.98-1.34l5.24,3.07c2,1.17,3.49,3.1,4.46,5.2l3.66,7.93,2.23,6.64,3.01,12.31.02,11.67-4.72,9.23-3.37,2.96c-6.54,4.84-13.76,9.17-21.54,11.6-2.48,2.09-5.07,4.02-6.89,6.68s-3.12,7.4-3.26,10.68l2.27,10.4c.33,1.52,2.96,5.34,4.9,6.65,3.83,2.61,9.55,2.51,13.45-.41,1.09-.81,2.49-1.63,3.31-2.74,2.19-2.94,4.04-6.07,5.4-9.51l6.32-15.91c1.52-1.17,2.88-2.72,4.75-3.45,1.05-.36,2.86-.42,3.91-.04l5.8,2.09c4.19,1.51,9.82-4.28,11.02-8.15l2.5-8.08,4.64-20.29c.24-1.04.96-2.64,1.71-3.22l4.38-3.4,5.79-3.66c1.19-.75,2.19-2.19,2.86-3.47.57-1.08.76-2.77.65-4l-.51-5.58c-1-4.25-2.36-8.27-4.07-12.29l-3.36-6.29-8.12-13.22-17.42-23.5-11.96-25.44-8.86-15.12-1.8-3.23c-2.27-2.3-6.21-4.74-8.17-2.84l-4.52,4.38-4.47,10.95-3.12,14.6-6.31,1.13-24.97-28.37c-1.43-1.62-4.41-3.78-6.26-3.27s-3.74,3.59-4.02,5.22c-.55,3.2-.82,6.28-1.8,9.4l-.51,12.37.48,17.43-11.31,11.62c-3.5,4.2-6.33,8.61-9.42,13.07-.16,1.06-.92,2.23-.49,3.18l2.05,4.54c.43.96.1,2.23.05,3.25-.04.9-.59,1.4-1.26,1.83l-18.62,12.12-19.68,14.3c-2.24,1.63-4.05,4.66-3.7,7.42.29,2.33,1.59,5.03,3.25,6.48l8.6,7.55,8.91,6.57,9.79,5.89-2.67,5.5c-.68,1.41-.12,3.15.5,4.49l2.19,2.02c.64.59,1.94,1.17,2.89,1.17l7.49-.03c3.2-.01,7.67-4.24,9.51-4.47l4.13-.52c1.77-.22,3.29.7,4.89,1.18,1.21.36,2.3.54,2.99,1.79l2.12,3.87c.47,1.44.62,3.05.64,4.58l.19,11.57c.04,2.16.99,4.31,1.69,6.34l2.68,4.47c.52.88,1.46,1.3,2.18,2,1.99,1.96,4.57,3.49,7.49,3.35l5.47-1.06,1.73-1.64c.2-2.46-.1-4.82-.65-7.22l-4.92-8.36c-.79-1.34-.63-3.25-.75-4.78-.2-2.57.43-4.71,1.85-6.79.61-.9,1.13-2.56,2.33-2.87l8.49-.21,6.49-1.22c1.56-.29,3.08-1.31,4.39-2.22,3.15-2.19,6.87-10.57,6.46-12.69l-1.11-5.73-1.47-3.54c-.76-1.84-2.35-3.66-4.28-4.44-.97-.39-4.75-.32-5.6.42-.68.59,1.29,8.08-4.27,13.23-2.58,2.39-5.7,4.06-9.17,4.63l-12.98-1.06-17.12,2.25c.58-.75.96-1.58,1.71-2.16,2.53-1.97,14.77-3.67,20.09-4.81l9.36-2.77c3.07-3.8,3.17-4.9,2.8-9.27-.17-2-1.58-3.51-3.52-3.56-2.74-.07-5.22.12-7.92.61l-13.23,6.37-3,2.26-7.52,3.58-8.01.99-8.11-.59-8.15-2.3c-3.02-.85-7.06-3.33-8.6-6.26l-1.81-3.44c.33-4.13,1.81-7.83,4.06-11.29.21-.32.41-.61.36-.95-.1-.71-3.4-2.78-4.42-5.91l2.33-5.18Z"/>
        <g>
          <path class="st0" d="M159.18,93.82l8.44,1.43c.99.17,2.76-.48,3.08-1.54.69-2.3-.44-4.59-2.02-6.22l-3.56-8.9,3.98-5.31c1.97-3.36,2.54-6.84,2.38-10.84.93,1.62,2.25,2.97,2.8,4.68.62,1.93,1.04,3.91,1.2,5.98.92,11.54.86,22.91,0,34.34l-5.42-5.89-4.95-4.44-5.95-3.28Z"/>
          <g>
            <path class="st4" d="M73.7,148.48l-2.33,5.18c1.01,3.13,4.31,5.2,4.42,5.91.05.34-.15.63-.36.95-2.25,3.46-3.72,7.16-4.06,11.29l1.81,3.44c1.54,2.94,5.58,5.41,8.6,6.26l8.15,2.3,8.11.59,8.01-.99,7.52-3.58,3-2.26,13.23-6.37c2.7-.49,5.18-.69,7.92-.61,1.95.05,3.36,1.56,3.52,3.56.37,4.37.27,5.47-2.8,9.27l-9.36,2.77c-5.32,1.14-17.56,2.84-20.09,4.81-.75.58-1.13,1.41-1.71,2.16l17.12-2.25,12.98,1.06c3.47-.58,6.59-2.24,9.17-4.63,5.57-5.15,3.59-12.63,4.27-13.23.84-.74,4.63-.81,5.6-.42,1.93.78,3.51,2.6,4.28,4.44l1.47,3.54,1.11,5.73c.41,2.13-3.3,10.5-6.46,12.69-1.31.91-2.83,1.93-4.39,2.22l-6.49,1.22-8.49.21c-1.19.31-1.71,1.97-2.33,2.87-1.42,2.08-2.06,4.22-1.85,6.79.12,1.53-.04,3.44.75,4.78l4.92,8.36c.55,2.4.85,4.76.65,7.22l-1.73,1.64-5.47,1.06c-2.92.14-5.5-1.39-7.49-3.35-.72-.7-1.65-1.13-2.18-2l-2.68-4.47c-.7-2.03-1.65-4.18-1.69-6.34l-.19-11.57c-.03-1.53-.17-3.14-.64-4.58l-2.12-3.87c-.69-1.25-1.78-1.43-2.99-1.79-1.6-.47-3.12-1.4-4.89-1.18l-4.13.52c-1.84.23-6.31,4.46-9.51,4.47l-7.49.03c-.95,0-2.25-.58-2.89-1.17l-2.19-2.02c-.62-1.34-1.19-3.08-.5-4.49l2.67-5.5-9.79-5.89-8.91-6.57-8.6-7.55c-1.66-1.46-2.96-4.16-3.25-6.48-.35-2.76,1.46-5.79,3.7-7.42l19.68-14.3,18.62-12.12c.67-.43,1.22-.94,1.26-1.83.04-1.02.38-2.29-.05-3.25l-2.05-4.54c-.43-.96.33-2.12.49-3.18,3.08-4.46,5.92-8.87,9.42-13.07l11.31-11.62-.48-17.43.51-12.37c.98-3.13,1.25-6.2,1.8-9.4.28-1.62,2.11-4.69,4.02-5.22s4.83,1.65,6.26,3.27l24.97,28.37,6.31-1.13,3.12-14.6,4.47-10.95,4.52-4.38c1.96-1.9,5.89.54,8.17,2.84l1.8,3.23,8.86,15.12,11.96,25.44,17.42,23.5,8.12,13.22,3.36,6.29c1.71,4.02,3.07,8.05,4.07,12.29l.51,5.58c.11,1.23-.08,2.91-.65,4-.67,1.28-1.67,2.72-2.86,3.47l-5.79,3.66-4.38,3.4c-.75.58-1.47,2.18-1.71,3.22l-4.64,20.29-2.5,8.08c-1.2,3.87-6.82,9.65-11.02,8.15l-5.8-2.09c-1.05-.38-2.86-.32-3.91.04-1.87.72-3.23,2.28-4.75,3.45l-6.32,15.91c-1.37,3.44-3.21,6.57-5.4,9.51-.82,1.1-2.23,1.92-3.31,2.74-3.89,2.92-9.62,3.02-13.45.41-1.93-1.32-4.57-5.14-4.9-6.65l-2.27-10.4c.14-3.28,1.48-8.09,3.26-10.68s4.42-4.59,6.89-6.68c7.77-2.42,15-6.76,21.54-11.6l3.37-2.96,4.72-9.23-.02-11.67-3.01-12.31-2.23-6.64-3.66-7.93c-.97-2.1-2.46-4.03-4.46-5.2l-5.24-3.07c-2.22-1.3-9.01-.08-11.98,1.34l-7.46,3.56c-1.45.69-6.65.59-7.61-2.72l-1.26-4.39c-.34-1.17-2.11-2.2-3.34-1.76l-7.58,2.66-4.72,3.53,3.52,5.79,7.35,2.4c.88.29,1.78,1.51,2.29,2.29.54.83,1.03,4.13-.03,5.21l-2.79,2.86c-1.73-.07-3.62-.06-5.25-.8-4.61-2.07-10.06-9.41-13.51-13.85-3.58-4.62-5.99-9.64-6.95-15.47l-.74-7.24c.07-2.74.88-5.17,1.6-7.77-1.87,1.1-3.28,2.74-4.04,4.76l-2.71,7.24-.22,5.92-27.77,16.49-5.71,4.2ZM131.09,83.64l2.18-2.2-5.05-14.09-3-6.91c-.57,8.24-.72,15.97-.59,23.96l1.15,2.28c1.88-.95,3.89-1.59,5.31-3.04ZM159.18,93.82l5.95,3.28,4.95,4.44,5.42,5.89c.85-11.43.92-22.79,0-34.34-.16-2.07-.59-4.06-1.2-5.98-.55-1.71-1.87-3.06-2.8-4.68.16,4-.41,7.49-2.38,10.84l-3.98,5.31,3.56,8.9c1.58,1.63,2.71,3.92,2.02,6.22-.32,1.06-2.09,1.71-3.08,1.54l-8.44-1.43ZM133.79,121.42l9.85,5.72c.97.56,2.1.76,3.26,1.05l-1.98-3.38-1.19-5.23c-.35-1.51.54-2.99.41-4.45-.88-3.16-2.86-5.31-5.71-7.07l-4.52.14c-1.11.03-2.7.52-3.64,1.21l-7.99,5.87c-1.74,1.28-2.27,4.12-2.93,6.08l-.56,4.04c1.03.2,2.46.19,2.95-.69,1.87-3.38,4.04-7.3,7.34-5.65l4.71,2.37Z"/>
            <path class="st0" d="M133.79,121.42l-4.71-2.37c-3.29-1.65-5.46,2.27-7.34,5.65-.49.88-1.91.89-2.95.69l.56-4.04c.67-1.96,1.19-4.8,2.93-6.08l7.99-5.87c.94-.69,2.52-1.18,3.64-1.21l4.52-.14c2.86,1.76,4.83,3.91,5.71,7.07.13,1.47-.75,2.94-.41,4.45l1.19,5.23,1.98,3.38c-1.16-.28-2.29-.48-3.26-1.05l-9.85-5.72Z"/>
            <path class="st0" d="M131.09,83.64c-1.43,1.44-3.43,2.09-5.31,3.04l-1.15-2.28c-.14-7.99.02-15.72.59-23.96l3,6.91,5.05,14.09-2.18,2.2Z"/>
          </g>
        </g>
      </g>
    </g>
  </g>
</svg>